<svg width="1154" height="377" viewBox="0 0 1154 377" fill="none" xmlns="http://www.w3.org/2000/svg">
<path d="M56.4771 281.919C38.1828 281.919 24.9744 277.364 16.852 268.255C8.80557 259.145 4.78234 244.647 4.78234 224.758V205.173H44.4074V230.224C44.4074 234.854 45.0906 238.498 46.457 241.155C47.8993 243.736 50.3664 245.026 53.8582 245.026C57.5019 245.026 60.0069 243.963 61.3733 241.838C62.8156 239.713 63.5368 236.221 63.5368 231.362C63.5368 225.214 62.9295 220.09 61.7149 215.991C60.5004 211.816 58.3749 207.868 55.3385 204.149C52.378 200.353 48.2409 195.95 42.9272 190.94L24.9365 173.86C11.5004 161.183 4.78234 146.685 4.78234 130.364C4.78234 113.284 8.72966 100.266 16.6243 91.3082C24.5949 82.3508 36.0953 77.8721 51.1255 77.8721C69.4957 77.8721 82.5143 82.7683 90.1812 92.5607C97.924 102.353 101.795 117.232 101.795 137.196H61.0317V123.418C61.0317 120.685 60.2347 118.56 58.6406 117.042C57.1224 115.524 55.0348 114.764 52.378 114.764C49.1898 114.764 46.8365 115.675 45.3183 117.497C43.876 119.243 43.1549 121.52 43.1549 124.329C43.1549 127.138 43.914 130.174 45.4322 133.438C46.9504 136.702 49.9489 140.46 54.4275 144.711L77.5422 166.915C82.1727 171.317 86.4237 175.986 90.2951 180.92C94.1665 185.778 97.2788 191.472 99.632 198C101.985 204.452 103.162 212.347 103.162 221.684C103.162 240.51 99.67 255.274 92.6862 265.977C85.7784 276.605 73.7087 281.919 56.4771 281.919ZM160.272 281.919C141.143 281.919 127.555 277.022 119.508 267.23C111.538 257.438 107.552 243.053 107.552 224.075V171.469C107.552 157.198 109.071 145.318 112.107 135.83C115.143 126.341 120.457 119.243 128.048 114.537C135.639 109.83 146.191 107.477 159.703 107.477C169.116 107.477 177.542 109.147 184.981 112.487C192.496 115.827 198.417 120.723 202.744 127.176C207.071 133.628 209.234 141.523 209.234 150.86V176.935H167.673V153.023C167.673 149.076 167.104 145.774 165.965 143.117C164.827 140.384 162.36 139.018 158.564 139.018C151.884 139.018 148.544 143.762 148.544 153.251V236.031C148.544 239.523 149.303 242.749 150.821 245.709C152.339 248.594 154.844 250.036 158.336 250.036C161.904 250.036 164.371 248.632 165.738 245.823C167.18 242.939 167.901 239.599 167.901 235.803V207.109H209.234V236.942C209.234 246.355 207.109 254.439 202.858 261.195C198.683 267.875 192.913 272.999 185.55 276.567C178.187 280.135 169.761 281.919 160.272 281.919ZM247.557 281.919C238.068 281.919 230.818 279.717 225.808 275.314C220.874 270.912 217.496 264.877 215.674 257.21C213.852 249.543 212.942 240.851 212.942 231.135C212.942 220.735 213.966 212.233 216.016 205.629C218.065 198.949 221.557 193.483 226.491 189.232C231.502 184.981 238.371 181.376 247.101 178.415L272.379 169.761V152.226C272.379 143.041 269.381 138.448 263.384 138.448C257.918 138.448 255.186 142.168 255.186 149.607V159.855H215.56C215.485 159.248 215.447 158.489 215.447 157.578C215.447 156.591 215.447 155.49 215.447 154.276C215.447 137.272 219.432 125.24 227.402 118.18C235.449 111.045 248.164 107.477 265.547 107.477C274.656 107.477 282.817 109.109 290.028 112.373C297.24 115.562 302.933 120.306 307.108 126.606C311.359 132.907 313.484 140.688 313.484 149.949V280.097H272.948V259.829C270.975 266.964 267.711 272.43 263.156 276.225C258.601 280.021 253.402 281.919 247.557 281.919ZM263.612 250.264C266.952 250.264 269.229 248.86 270.443 246.051C271.658 243.242 272.265 240.206 272.265 236.942V189.346C266.648 191.623 262.283 194.508 259.171 198C256.058 201.416 254.502 206.464 254.502 213.144V235.12C254.502 245.216 257.539 250.264 263.612 250.264ZM322.202 280.097V79.694H363.649V280.097H322.202ZM420.873 281.919C408.727 281.919 399.049 279.641 391.837 275.087C384.626 270.532 379.464 263.966 376.352 255.388C373.239 246.81 371.683 236.486 371.683 224.417V155.756C371.683 139.891 376.238 127.897 385.347 119.775C394.456 111.576 406.981 107.477 422.923 107.477C455.716 107.477 472.112 123.57 472.112 155.756V168.167C472.112 183.197 471.96 193.293 471.657 198.455H412.447V231.476C412.447 234.513 412.637 237.511 413.016 240.472C413.396 243.356 414.231 245.747 415.521 247.645C416.888 249.543 419.051 250.492 422.012 250.492C426.263 250.492 428.919 248.67 429.982 245.026C431.045 241.307 431.576 236.486 431.576 230.565V214.169H472.112V223.847C472.112 236.6 470.518 247.304 467.33 255.957C464.218 264.535 458.904 271.025 451.389 275.428C443.95 279.755 433.778 281.919 420.873 281.919ZM412.219 178.187H431.576V155.187C431.576 149.038 430.817 144.635 429.299 141.978C427.781 139.245 425.503 137.879 422.467 137.879C419.203 137.879 416.66 139.17 414.838 141.751C413.092 144.331 412.219 148.81 412.219 155.187V178.187ZM577.224 281.919C543.216 281.919 526.212 264.269 526.212 228.971V160.424C526.212 144.331 530.729 131.503 539.762 121.938C548.795 112.297 561.282 107.477 577.224 107.477C593.241 107.477 605.766 112.297 614.799 121.938C623.832 131.503 628.349 144.331 628.349 160.424V228.971C628.349 264.269 611.307 281.919 577.224 281.919ZM577.224 250.492C580.639 250.492 583.069 249.277 584.511 246.848C586.029 244.343 586.788 241.193 586.788 237.397V153.934C586.788 143.99 583.6 139.018 577.224 139.018C570.847 139.018 567.659 143.99 567.659 153.934V237.397C567.659 241.193 568.38 244.343 569.822 246.848C571.34 249.277 573.808 250.492 577.224 250.492ZM640.255 280.097V147.899H632.853V116.814H640.255V105.2C640.255 86.8295 649.44 77.6444 667.81 77.6444C676.464 77.6444 683.448 78.7451 688.761 80.9465V106.111C686.864 105.731 685.611 105.541 685.004 105.541C682.651 105.541 681.208 106.414 680.677 108.16C680.145 109.83 679.88 111.994 679.88 114.651V116.814H688.761V148.355H680.677V280.097H640.255ZM760.396 280.097V118.18H736.598V79.694H824.275V118.18H800.477V280.097H760.396ZM827.526 98.8233V64.8915H868.29V98.8233H827.526ZM827.526 280.097V109.299H868.29V280.097H827.526ZM877.463 280.097V109.299H917.316V129.111C919.138 122.128 922.25 116.776 926.653 113.056C931.056 109.337 937.508 107.477 946.01 107.477C952.842 107.477 958.649 109.071 963.431 112.259C968.29 115.372 971.706 119.509 973.679 124.671C976.792 119.053 980.435 114.802 984.61 111.918C988.861 108.957 994.896 107.477 1002.71 107.477C1012.2 107.477 1019.49 109.527 1024.58 113.626C1029.74 117.649 1033.31 123.266 1035.28 130.478C1037.33 137.613 1038.35 145.888 1038.35 155.3V280.097H997.705V154.617C997.705 143.61 994.896 138.107 989.279 138.107C986.318 138.107 984.041 139.132 982.447 141.181C980.853 143.155 979.752 145.622 979.145 148.582C978.537 151.543 978.234 154.503 978.234 157.464V280.097H937.584V154.617C937.584 151.049 937.129 147.482 936.218 143.914C935.383 140.346 933.181 138.562 929.613 138.562C926.577 138.562 924.224 139.663 922.554 141.864C920.884 144.066 919.745 146.799 919.138 150.063C918.531 153.251 918.227 156.401 918.227 159.513V280.097H877.463ZM1095.24 281.919C1083.09 281.919 1073.41 279.641 1066.2 275.087C1058.99 270.532 1053.83 263.966 1050.72 255.388C1047.6 246.81 1046.05 236.486 1046.05 224.417V155.756C1046.05 139.891 1050.6 127.897 1059.71 119.775C1068.82 111.576 1081.35 107.477 1097.29 107.477C1130.08 107.477 1146.48 123.57 1146.48 155.756V168.167C1146.48 183.197 1146.32 193.293 1146.02 198.455H1086.81V231.476C1086.81 234.513 1087 237.511 1087.38 240.472C1087.76 243.356 1088.59 245.747 1089.89 247.645C1091.25 249.543 1093.42 250.492 1096.38 250.492C1100.63 250.492 1103.28 248.67 1104.35 245.026C1105.41 241.307 1105.94 236.486 1105.94 230.565V214.169H1146.48V223.847C1146.48 236.6 1144.88 247.304 1141.69 255.957C1138.58 264.535 1133.27 271.025 1125.75 275.428C1118.31 279.755 1108.14 281.919 1095.24 281.919ZM1086.58 178.187H1105.94V155.187C1105.94 149.038 1105.18 144.635 1103.66 141.978C1102.14 139.245 1099.87 137.879 1096.83 137.879C1093.57 137.879 1091.02 139.17 1089.2 141.751C1087.46 144.331 1086.58 148.81 1086.58 155.187V178.187Z" fill="#FC5101"/>
<circle cx="981" cy="335.93" r="3" fill="#FC5101"/>
<circle cx="969" cy="335.93" r="3" fill="#FC5101"/>
<circle cx="957" cy="335.93" r="3" fill="#FC5101"/>
<circle cx="993" cy="335.93" r="3" fill="#FC5101"/>
<circle cx="206" cy="37.9297" r="3" fill="#FC5101"/>
<circle cx="194" cy="37.9297" r="3" fill="#FC5101"/>
<circle cx="182" cy="37.9297" r="3" fill="#FC5101"/>
<circle cx="218" cy="37.9297" r="3" fill="#FC5101"/>
<path d="M3.24219 54.9297V20.5547H12.2656V22.8203H6.13281V35.3008H11.9336V37.625H6.13281V54.9297H3.24219ZM15.7188 54.9297V25.6328H18.6289V28.8945C18.9674 27.7617 19.5534 26.8763 20.3867 26.2383C21.2331 25.6003 22.3073 25.2812 23.6094 25.2812C23.6354 25.2812 23.6484 25.4049 23.6484 25.6523C23.6615 25.8997 23.668 26.1927 23.668 26.5312C23.668 26.8568 23.668 27.1432 23.668 27.3906C23.668 27.638 23.668 27.7617 23.668 27.7617C23.0299 27.7617 22.4245 27.8464 21.8516 28.0156C21.2786 28.1719 20.7318 28.4518 20.2109 28.8555C19.6901 29.2591 19.1628 29.8385 18.6289 30.5938V54.9297H15.7188ZM31.75 55.2812C30.3958 55.2812 29.3281 55.0273 28.5469 54.5195C27.7656 54.0117 27.1862 53.2956 26.8086 52.3711C26.431 51.4336 26.1901 50.3333 26.0859 49.0703C25.9818 47.7943 25.9297 46.3945 25.9297 44.8711V35.0469C25.9297 33.2109 26.0469 31.5573 26.2812 30.0859C26.5286 28.6016 27.0625 27.4297 27.8828 26.5703C28.7161 25.7109 30.0052 25.2812 31.75 25.2812C33.0651 25.2812 34.1068 25.5286 34.875 26.0234C35.6432 26.5182 36.2096 27.2083 36.5742 28.0938C36.9388 28.9792 37.1732 30.0143 37.2773 31.1992C37.3815 32.3841 37.4336 33.6667 37.4336 35.0469V44.8711C37.4336 46.3685 37.388 47.7487 37.2969 49.0117C37.2057 50.2747 36.9844 51.375 36.6328 52.3125C36.2812 53.25 35.7214 53.9792 34.9531 54.5C34.1849 55.0208 33.1172 55.2812 31.75 55.2812ZM31.75 52.7227C32.5573 52.7227 33.1562 52.4362 33.5469 51.8633C33.9505 51.2904 34.2109 50.4961 34.3281 49.4805C34.4583 48.4518 34.5234 47.2539 34.5234 45.8867V34.3633C34.5234 33.0742 34.4583 31.9414 34.3281 30.9648C34.2109 29.9883 33.957 29.2266 33.5664 28.6797C33.1758 28.1198 32.5703 27.8398 31.75 27.8398C30.8776 27.8398 30.2331 28.1198 29.8164 28.6797C29.3997 29.2266 29.1328 29.9883 29.0156 30.9648C28.8984 31.9414 28.8398 33.0742 28.8398 34.3633V45.8867C28.8398 47.2539 28.8984 48.4518 29.0156 49.4805C29.1458 50.4961 29.4193 51.2904 29.8359 51.8633C30.2526 52.4362 30.8906 52.7227 31.75 52.7227ZM42.0781 54.9297V25.6328H44.9883V28.543C45.2357 27.7096 45.763 26.9544 46.5703 26.2773C47.3906 25.6003 48.3542 25.2617 49.4609 25.2617C50.3854 25.2617 51.1862 25.5091 51.8633 26.0039C52.5534 26.4857 53.0612 27.2279 53.3867 28.2305C53.8555 27.3581 54.5326 26.6484 55.418 26.1016C56.3034 25.5417 57.2799 25.2617 58.3477 25.2617C59.5586 25.2617 60.5742 25.7305 61.3945 26.668C62.2148 27.5924 62.625 29.0898 62.625 31.1602V54.9297H59.6953V30.9844C59.6953 29.8255 59.4479 29.0312 58.9531 28.6016C58.4583 28.1719 57.8138 27.957 57.0195 27.957C55.8216 27.957 54.9818 28.1784 54.5 28.6211C54.0312 29.0508 53.7969 29.8971 53.7969 31.1602V54.9297H50.8867V30.9844C50.8867 29.7865 50.6328 28.9857 50.125 28.582C49.6302 28.1654 48.9987 27.957 48.2305 27.957C47.2018 27.957 46.401 28.237 45.8281 28.7969C45.2682 29.3568 44.9883 30.1966 44.9883 31.3164V54.9297H42.0781ZM75.7422 54.9297V20.5547H78.6523V35.4375H84.9414V20.5547H87.8516V54.9297H84.9414V37.625H78.6523V54.9297H75.7422ZM97.6133 55.3203C97.0013 55.3203 96.3307 55.151 95.6016 54.8125C94.8854 54.4609 94.2669 53.8555 93.7461 52.9961C93.2383 52.1237 92.9844 50.9128 92.9844 49.3633V25.6328H95.8945V49.2266C95.8945 50.3724 96.1549 51.2253 96.6758 51.7852C97.1966 52.332 97.8932 52.6055 98.7656 52.6055C99.7943 52.6055 100.595 52.2865 101.168 51.6484C101.754 50.9974 102.047 50.1185 102.047 49.0117L102.008 25.6328H104.957V54.9297H102.047V52C101.812 52.8333 101.298 53.5951 100.504 54.2852C99.7096 54.9753 98.7461 55.3203 97.6133 55.3203ZM110.07 54.9297V25.6328H112.98V28.543C113.228 27.7096 113.755 26.9544 114.562 26.2773C115.383 25.6003 116.346 25.2617 117.453 25.2617C118.378 25.2617 119.178 25.5091 119.855 26.0039C120.546 26.4857 121.053 27.2279 121.379 28.2305C121.848 27.3581 122.525 26.6484 123.41 26.1016C124.296 25.5417 125.272 25.2617 126.34 25.2617C127.551 25.2617 128.566 25.7305 129.387 26.668C130.207 27.5924 130.617 29.0898 130.617 31.1602V54.9297H127.688V30.9844C127.688 29.8255 127.44 29.0312 126.945 28.6016C126.451 28.1719 125.806 27.957 125.012 27.957C123.814 27.957 122.974 28.1784 122.492 28.6211C122.023 29.0508 121.789 29.8971 121.789 31.1602V54.9297H118.879V30.9844C118.879 29.7865 118.625 28.9857 118.117 28.582C117.622 28.1654 116.991 27.957 116.223 27.957C115.194 27.957 114.393 28.237 113.82 28.7969C113.26 29.3568 112.98 30.1966 112.98 31.3164V54.9297H110.07ZM139.656 55.1445C138.107 55.1445 136.941 54.4935 136.16 53.1914C135.379 51.8763 134.988 50.0013 134.988 47.5664V43.8164C134.988 42.7747 135.203 41.8893 135.633 41.1602C136.076 40.431 136.681 39.793 137.449 39.2461C138.23 38.6992 139.135 38.1914 140.164 37.7227C141.206 37.2539 142.319 36.7656 143.504 36.2578V34.2656C143.504 32.7682 143.465 31.5508 143.387 30.6133C143.309 29.6628 143.094 28.9661 142.742 28.5234C142.391 28.0677 141.798 27.8398 140.965 27.8398C140.158 27.8398 139.559 28.0612 139.168 28.5039C138.79 28.9336 138.543 29.6367 138.426 30.6133C138.322 31.5768 138.27 32.8594 138.27 34.4609V35.1836H135.34V34.4023C135.34 33.2305 135.379 32.0977 135.457 31.0039C135.548 29.9102 135.763 28.9336 136.102 28.0742C136.453 27.2148 137.007 26.5378 137.762 26.043C138.53 25.5352 139.598 25.2812 140.965 25.2812C142.345 25.2812 143.406 25.5091 144.148 25.9648C144.904 26.4206 145.438 27.0977 145.75 27.9961C146.076 28.8945 146.264 30.0013 146.316 31.3164C146.382 32.6315 146.414 34.1484 146.414 35.8672V54.9297H143.504V52.7422C143.426 52.9766 143.237 53.2891 142.938 53.6797C142.638 54.0573 142.215 54.3958 141.668 54.6953C141.134 54.9948 140.464 55.1445 139.656 55.1445ZM140.184 52.7227C140.952 52.7227 141.642 52.5078 142.254 52.0781C142.866 51.6354 143.283 51.2122 143.504 50.8086V38.582C142.293 39.1289 141.31 39.5977 140.555 39.9883C139.812 40.3789 139.246 40.7826 138.855 41.1992C138.478 41.6029 138.217 42.1042 138.074 42.7031C137.944 43.2891 137.879 44.0508 137.879 44.9883V47.3125C137.879 49.2656 138.029 50.6589 138.328 51.4922C138.628 52.3125 139.246 52.7227 140.184 52.7227ZM151.117 54.9297V25.6328H154.027V28.5039C154.288 27.6706 154.854 26.9219 155.727 26.2578C156.599 25.5938 157.608 25.2617 158.754 25.2617C160.017 25.2617 161.052 25.7435 161.859 26.707C162.667 27.6576 163.07 29.181 163.07 31.2773V54.9297H160.16V31.043C160.16 29.8451 159.88 29.0117 159.32 28.543C158.773 28.0742 158.109 27.8398 157.328 27.8398C156.794 27.8398 156.273 27.931 155.766 28.1133C155.258 28.2956 154.841 28.6211 154.516 29.0898C154.19 29.5586 154.027 30.2292 154.027 31.1016V54.9297H151.117Z" fill="#FC5101"/>
<path d="M1018.26 353.105C1017.01 353.105 1016.07 352.969 1015.45 352.695C1014.84 352.409 1014.43 351.947 1014.22 351.309C1014.02 350.658 1013.93 349.785 1013.93 348.691V325.898H1011V323.633H1013.93V318.555H1016.86V323.633H1020.31V325.898H1016.86V348.848C1016.86 349.368 1016.91 349.759 1017.03 350.02C1017.16 350.267 1017.47 350.43 1017.95 350.508C1018.43 350.586 1019.21 350.625 1020.29 350.625V353.105H1018.26ZM1028.77 353.281C1027.41 353.281 1026.34 353.027 1025.56 352.52C1024.78 352.012 1024.2 351.296 1023.82 350.371C1023.45 349.434 1023.21 348.333 1023.1 347.07C1023 345.794 1022.95 344.395 1022.95 342.871V333.047C1022.95 331.211 1023.06 329.557 1023.3 328.086C1023.54 326.602 1024.08 325.43 1024.9 324.57C1025.73 323.711 1027.02 323.281 1028.77 323.281C1030.08 323.281 1031.12 323.529 1031.89 324.023C1032.66 324.518 1033.23 325.208 1033.59 326.094C1033.95 326.979 1034.19 328.014 1034.29 329.199C1034.4 330.384 1034.45 331.667 1034.45 333.047V342.871C1034.45 344.368 1034.4 345.749 1034.31 347.012C1034.22 348.275 1034 349.375 1033.65 350.312C1033.3 351.25 1032.74 351.979 1031.97 352.5C1031.2 353.021 1030.13 353.281 1028.77 353.281ZM1028.77 350.723C1029.57 350.723 1030.17 350.436 1030.56 349.863C1030.97 349.29 1031.23 348.496 1031.34 347.48C1031.47 346.452 1031.54 345.254 1031.54 343.887V332.363C1031.54 331.074 1031.47 329.941 1031.34 328.965C1031.23 327.988 1030.97 327.227 1030.58 326.68C1030.19 326.12 1029.59 325.84 1028.77 325.84C1027.89 325.84 1027.25 326.12 1026.83 326.68C1026.42 327.227 1026.15 327.988 1026.03 328.965C1025.91 329.941 1025.86 331.074 1025.86 332.363V343.887C1025.86 345.254 1025.91 346.452 1026.03 347.48C1026.16 348.496 1026.43 349.29 1026.85 349.863C1027.27 350.436 1027.91 350.723 1028.77 350.723ZM1052.92 353.32C1051.3 353.32 1050.05 352.988 1049.17 352.324C1048.3 351.647 1047.69 350.632 1047.35 349.277C1047.01 347.91 1046.84 346.185 1046.84 344.102V318.555H1049.75V344.004C1049.75 345.488 1049.81 346.751 1049.91 347.793C1050.01 348.822 1050.29 349.603 1050.73 350.137C1051.19 350.671 1051.92 350.938 1052.94 350.938C1053.97 350.938 1054.7 350.671 1055.12 350.137C1055.55 349.603 1055.81 348.822 1055.89 347.793C1055.98 346.764 1056.02 345.508 1056.02 344.023V318.555H1058.93V344.102C1058.93 346.185 1058.77 347.91 1058.45 349.277C1058.12 350.632 1057.52 351.647 1056.65 352.324C1055.79 352.988 1054.55 353.32 1052.92 353.32ZM1063.97 352.93V323.633H1066.88V326.504C1067.14 325.671 1067.71 324.922 1068.58 324.258C1069.45 323.594 1070.46 323.262 1071.61 323.262C1072.87 323.262 1073.9 323.743 1074.71 324.707C1075.52 325.658 1075.92 327.181 1075.92 329.277V352.93H1073.01V329.043C1073.01 327.845 1072.73 327.012 1072.17 326.543C1071.62 326.074 1070.96 325.84 1070.18 325.84C1069.65 325.84 1069.12 325.931 1068.62 326.113C1068.11 326.296 1067.69 326.621 1067.37 327.09C1067.04 327.559 1066.88 328.229 1066.88 329.102V352.93H1063.97ZM1080.98 352.93V323.633H1083.91V352.93H1080.98ZM1080.98 320.938V318.105H1083.89V320.938H1080.98ZM1091.68 352.93L1087.2 323.633H1089.86L1092.16 339.453L1093.16 348.223H1093.28L1094.16 339.434L1096.3 323.633H1098.96L1094.59 352.93H1091.68ZM1107.32 353.281C1105.98 353.281 1104.91 353.034 1104.13 352.539C1103.36 352.031 1102.8 351.315 1102.43 350.391C1102.07 349.466 1101.83 348.372 1101.73 347.109C1101.64 345.846 1101.59 344.46 1101.59 342.949V333.125C1101.59 331.745 1101.65 330.462 1101.77 329.277C1101.89 328.079 1102.13 327.031 1102.51 326.133C1102.9 325.234 1103.48 324.538 1104.25 324.043C1105.03 323.535 1106.08 323.281 1107.39 323.281C1108.71 323.281 1109.73 323.542 1110.46 324.062C1111.19 324.57 1111.71 325.286 1112.02 326.211C1112.35 327.122 1112.54 328.19 1112.61 329.414C1112.69 330.625 1112.73 331.94 1112.73 333.359V338.242H1104.5V344.141C1104.5 346.38 1104.65 348.04 1104.93 349.121C1105.23 350.189 1106.01 350.723 1107.28 350.723C1108.08 350.723 1108.66 350.469 1109.02 349.961C1109.37 349.44 1109.59 348.698 1109.68 347.734C1109.77 346.771 1109.82 345.612 1109.82 344.258V342.07H1112.65V343.027C1112.65 344.512 1112.62 345.879 1112.55 347.129C1112.5 348.366 1112.32 349.447 1112 350.371C1111.69 351.296 1111.16 352.012 1110.42 352.52C1109.69 353.027 1108.66 353.281 1107.32 353.281ZM1104.5 335.801H1109.82V332.07C1109.82 330.729 1109.78 329.596 1109.72 328.672C1109.67 327.747 1109.47 327.044 1109.13 326.562C1108.81 326.081 1108.23 325.84 1107.41 325.84C1106.57 325.84 1105.94 326.107 1105.52 326.641C1105.1 327.161 1104.83 327.904 1104.7 328.867C1104.57 329.818 1104.5 330.938 1104.5 332.227V335.801ZM1116.88 352.93V323.633H1119.79V326.895C1120.13 325.762 1120.72 324.876 1121.55 324.238C1122.4 323.6 1123.47 323.281 1124.77 323.281C1124.8 323.281 1124.81 323.405 1124.81 323.652C1124.83 323.9 1124.83 324.193 1124.83 324.531C1124.83 324.857 1124.83 325.143 1124.83 325.391C1124.83 325.638 1124.83 325.762 1124.83 325.762C1124.19 325.762 1123.59 325.846 1123.02 326.016C1122.44 326.172 1121.9 326.452 1121.38 326.855C1120.85 327.259 1120.33 327.839 1119.79 328.594V352.93H1116.88ZM1132.52 353.32C1130.48 353.32 1128.98 352.663 1128.01 351.348C1127.06 350.02 1126.59 347.897 1126.59 344.98V342.461H1129.5V344.473C1129.5 346.452 1129.72 347.982 1130.18 349.062C1130.65 350.13 1131.35 350.664 1132.27 350.664C1133.22 350.664 1133.9 350.358 1134.3 349.746C1134.72 349.134 1134.93 348.021 1134.93 346.406C1134.93 345.677 1134.87 344.967 1134.77 344.277C1134.68 343.587 1134.44 342.884 1134.05 342.168C1133.67 341.439 1133.04 340.664 1132.17 339.844L1130 337.793C1128.66 336.53 1127.73 335.247 1127.19 333.945C1126.67 332.63 1126.41 331.237 1126.41 329.766C1126.41 327.578 1126.92 325.951 1127.93 324.883C1128.95 323.815 1130.28 323.281 1131.92 323.281C1133.01 323.281 1133.96 323.561 1134.77 324.121C1135.59 324.668 1136.22 325.605 1136.66 326.934C1137.12 328.262 1137.35 330.085 1137.35 332.402V334.238H1134.61V331.875C1134.61 329.818 1134.4 328.32 1133.97 327.383C1133.55 326.432 1132.89 325.957 1131.98 325.957C1130.99 325.957 1130.3 326.38 1129.91 327.227C1129.53 328.06 1129.34 329.141 1129.34 330.469C1129.34 331.068 1129.4 331.647 1129.54 332.207C1129.67 332.754 1129.93 333.333 1130.32 333.945C1130.72 334.557 1131.33 335.26 1132.13 336.055L1134.18 338.066C1135.56 339.408 1136.53 340.775 1137.09 342.168C1137.65 343.548 1137.93 345.02 1137.93 346.582C1137.93 348.574 1137.5 350.195 1136.62 351.445C1135.77 352.695 1134.4 353.32 1132.52 353.32ZM1146.35 353.281C1145.01 353.281 1143.95 353.034 1143.16 352.539C1142.4 352.031 1141.83 351.315 1141.46 350.391C1141.1 349.466 1140.87 348.372 1140.76 347.109C1140.67 345.846 1140.62 344.46 1140.62 342.949V333.125C1140.62 331.745 1140.68 330.462 1140.8 329.277C1140.92 328.079 1141.17 327.031 1141.54 326.133C1141.93 325.234 1142.51 324.538 1143.28 324.043C1144.06 323.535 1145.11 323.281 1146.43 323.281C1147.74 323.281 1148.76 323.542 1149.49 324.062C1150.22 324.57 1150.74 325.286 1151.05 326.211C1151.38 327.122 1151.58 328.19 1151.64 329.414C1151.72 330.625 1151.76 331.94 1151.76 333.359V338.242H1143.54V344.141C1143.54 346.38 1143.68 348.04 1143.96 349.121C1144.26 350.189 1145.05 350.723 1146.31 350.723C1147.12 350.723 1147.7 350.469 1148.05 349.961C1148.4 349.44 1148.62 348.698 1148.71 347.734C1148.8 346.771 1148.85 345.612 1148.85 344.258V342.07H1151.68V343.027C1151.68 344.512 1151.65 345.879 1151.58 347.129C1151.53 348.366 1151.35 349.447 1151.04 350.371C1150.72 351.296 1150.2 352.012 1149.45 352.52C1148.72 353.027 1147.69 353.281 1146.35 353.281ZM1143.54 335.801H1148.85V332.07C1148.85 330.729 1148.82 329.596 1148.75 328.672C1148.7 327.747 1148.5 327.044 1148.16 326.562C1147.84 326.081 1147.27 325.84 1146.45 325.84C1145.6 325.84 1144.97 326.107 1144.55 326.641C1144.13 327.161 1143.86 327.904 1143.73 328.867C1143.6 329.818 1143.54 330.938 1143.54 332.227V335.801Z" fill="#FC5101"/>
<path d="M238 37.5547C238 37.8047 238 38.0547 238 38.3047C252.733 38.3464 267.467 38.3859 282.2 38.4234C414.8 38.7609 547.4 38.9297 680 38.9296C812.6 38.9296 945.2 38.7609 1077.8 38.4234C1092.53 38.3859 1107.27 38.3463 1122 38.3046C1122 38.0546 1122 37.8046 1122 37.5546C1107.27 37.5129 1092.53 37.4734 1077.8 37.4359C945.2 37.0984 812.6 36.9296 680 36.9296C547.4 36.9297 414.8 37.0984 282.2 37.4359C267.467 37.4734 252.733 37.513 238 37.5547Z" fill="#FC5101"/>
<path d="M11 336.555C11 336.805 11 337.055 11 337.305C26.4167 337.346 41.8333 337.386 57.25 337.423C196 337.761 334.75 337.93 473.5 337.93C612.25 337.93 751 337.761 889.75 337.424C905.167 337.386 920.583 337.346 936 337.305C936 337.055 936 336.805 936 336.555C920.583 336.513 905.167 336.474 889.75 336.436C751 336.099 612.25 335.93 473.5 335.93C334.75 335.93 196 336.098 57.25 336.436C41.8333 336.473 26.4167 336.513 11 336.555Z" fill="#FC5101"/>
</svg>
